<svg xmlns="http://www.w3.org/2000/svg" width="20" height="9.969"><defs><filter id="a" x="1523" y="735" width="20" height="9.969" filterUnits="userSpaceOnUse"><feFlood result="flood" flood-color="#f7f8f3"/><feComposite result="composite" operator="in" in2="SourceGraphic"/><feBlend result="blend" in2="SourceGraphic"/></filter></defs><path d="M1542.86 739.661l-4.54-4.527a.454.454 0 00-.64-.049.446.446 0 00-.05.638.18.18 0 00.05.049l3.77 3.758h-18a.453.453 0 000 .9h18l-3.77 3.753a.447.447 0 00-.05.639.455.455 0 00.64.049c.02-.015.03-.032.05-.049l4.54-4.527a.446.446 0 000-.634z" transform="translate(-1523 -735)" fill-rule="evenodd" filter="url(#a)"/></svg>